<svg width="20" height="19" viewBox="0 0 20 19" fill="none" xmlns="http://www.w3.org/2000/svg">
<path d="M6.25 2.77084V5.14584" stroke="#4C4C4C" stroke-linecap="round"/>
<path d="M6.25 11.4792V14.6458" stroke="#4C4C4C" stroke-linecap="round"/>
<path d="M4.1665 6.55C4.1665 5.55589 4.97239 4.75 5.9665 4.75H6.53317C7.52728 4.75 8.33317 5.55589 8.33317 6.55V10.075C8.33317 11.0691 7.52728 11.875 6.53317 11.875H5.9665C4.97239 11.875 4.1665 11.0691 4.1665 10.075V6.55Z" fill="#131313"/>
<path d="M13.75 5.14584V9.10417" stroke="#4C4C4C" stroke-linecap="round"/>
<path d="M13.75 13.0625V16.2292" stroke="#4C4C4C" stroke-linecap="round"/>
<path d="M11.6665 10.5083C11.6665 9.51422 12.4724 8.70834 13.4665 8.70834H14.0332C15.0273 8.70834 15.8332 9.51422 15.8332 10.5083V11.6583C15.8332 12.6524 15.0273 13.4583 14.0332 13.4583H13.4665C12.4724 13.4583 11.6665 12.6524 11.6665 11.6583V10.5083Z" fill="#131313"/>
</svg>
